<mxfile host="Electron" modified="2023-11-01T14:39:49.245Z" agent="Mozilla/5.0 (Windows NT 10.0; Win64; x64) AppleWebKit/537.36 (KHTML, like Gecko) draw.io/22.0.3 Chrome/114.0.5735.289 Electron/25.8.4 Safari/537.36" etag="f11-JNVVP3R3L51FsfxN" version="22.0.3" type="device">
  <diagram name="Page-1" id="6nIDLG34nHsw9krd193v">
    <mxGraphModel dx="1220" dy="827" grid="1" gridSize="10" guides="1" tooltips="1" connect="1" arrows="1" fold="1" page="1" pageScale="1" pageWidth="850" pageHeight="1100" math="0" shadow="0">
      <root>
        <mxCell id="0" />
        <mxCell id="1" parent="0" />
        <mxCell id="sHEHEselU_2R8SYliwzN-30" value="" style="rounded=0;whiteSpace=wrap;html=1;" vertex="1" parent="1">
          <mxGeometry x="80" y="110" width="740" height="630" as="geometry" />
        </mxCell>
        <mxCell id="sHEHEselU_2R8SYliwzN-1" value="&lt;font style=&quot;font-size: 14px;&quot;&gt;Code&lt;/font&gt;" style="rounded=0;whiteSpace=wrap;html=1;sketch=1;curveFitting=1;jiggle=2;fillColor=#0050ef;fontColor=#ffffff;strokeColor=#001DBC;" vertex="1" parent="1">
          <mxGeometry x="224" y="160" width="160" height="130" as="geometry" />
        </mxCell>
        <mxCell id="sHEHEselU_2R8SYliwzN-2" value="&lt;font style=&quot;font-size: 14px;&quot;&gt;Running System&lt;/font&gt;" style="rounded=0;whiteSpace=wrap;html=1;sketch=1;curveFitting=1;jiggle=2;fillColor=#60a917;fontColor=#ffffff;strokeColor=#2D7600;" vertex="1" parent="1">
          <mxGeometry x="434" y="160" width="160" height="130" as="geometry" />
        </mxCell>
        <mxCell id="sHEHEselU_2R8SYliwzN-4" value="" style="html=1;shadow=0;dashed=0;align=center;verticalAlign=middle;shape=mxgraph.arrows2.arrow;dy=0.6;dx=40;notch=0;sketch=1;curveFitting=1;jiggle=2;" vertex="1" parent="1">
          <mxGeometry x="379" y="220" width="60" height="30" as="geometry" />
        </mxCell>
        <mxCell id="sHEHEselU_2R8SYliwzN-6" value="&lt;font style=&quot;font-size: 14px;&quot;&gt;Unit Tests&lt;/font&gt;" style="rounded=1;whiteSpace=wrap;html=1;sketch=1;curveFitting=1;jiggle=2;fillColor=#1ba1e2;fontColor=#ffffff;strokeColor=#006EAF;" vertex="1" parent="1">
          <mxGeometry x="234" y="270" width="110" height="40" as="geometry" />
        </mxCell>
        <mxCell id="sHEHEselU_2R8SYliwzN-7" value="&lt;font style=&quot;font-size: 14px;&quot;&gt;Integration Tests&lt;/font&gt;" style="rounded=1;whiteSpace=wrap;html=1;sketch=1;curveFitting=1;jiggle=2;fillColor=#1ba1e2;fontColor=#ffffff;strokeColor=#006EAF;" vertex="1" parent="1">
          <mxGeometry x="354" y="270" width="110" height="40" as="geometry" />
        </mxCell>
        <mxCell id="sHEHEselU_2R8SYliwzN-8" value="&lt;font style=&quot;font-size: 14px;&quot;&gt;System Monitoring&lt;/font&gt;" style="rounded=1;whiteSpace=wrap;html=1;sketch=1;curveFitting=1;jiggle=2;fillColor=#6a00ff;fontColor=#ffffff;strokeColor=#3700CC;" vertex="1" parent="1">
          <mxGeometry x="474" y="270" width="110" height="40" as="geometry" />
        </mxCell>
        <mxCell id="sHEHEselU_2R8SYliwzN-9" value="&lt;font style=&quot;font-size: 14px;&quot;&gt;Code&lt;/font&gt;" style="rounded=0;whiteSpace=wrap;html=1;sketch=1;curveFitting=1;jiggle=2;fillColor=#0050ef;fontColor=#ffffff;strokeColor=#001DBC;" vertex="1" parent="1">
          <mxGeometry x="136" y="500" width="160" height="130" as="geometry" />
        </mxCell>
        <mxCell id="sHEHEselU_2R8SYliwzN-10" value="&lt;font style=&quot;font-size: 14px;&quot;&gt;Model Training&lt;/font&gt;" style="rounded=0;whiteSpace=wrap;html=1;sketch=1;curveFitting=1;jiggle=2;fillColor=#a20025;fontColor=#ffffff;strokeColor=#6F0000;" vertex="1" parent="1">
          <mxGeometry x="346" y="500" width="160" height="130" as="geometry" />
        </mxCell>
        <mxCell id="sHEHEselU_2R8SYliwzN-26" value="" style="edgeStyle=orthogonalEdgeStyle;rounded=0;orthogonalLoop=1;jettySize=auto;html=1;entryX=0;entryY=0;entryDx=30;entryDy=21;strokeWidth=4;entryPerimeter=0;sketch=1;curveFitting=1;jiggle=2;" edge="1" parent="1" source="sHEHEselU_2R8SYliwzN-11" target="sHEHEselU_2R8SYliwzN-18">
          <mxGeometry relative="1" as="geometry">
            <mxPoint x="800" y="380" as="targetPoint" />
            <Array as="points">
              <mxPoint x="800" y="565" />
              <mxPoint x="800" y="390" />
              <mxPoint x="466" y="390" />
              <mxPoint x="466" y="440" />
            </Array>
          </mxGeometry>
        </mxCell>
        <mxCell id="sHEHEselU_2R8SYliwzN-27" value="Feedback loop" style="edgeLabel;html=1;align=center;verticalAlign=middle;resizable=0;points=[];fontSize=14;" vertex="1" connectable="0" parent="sHEHEselU_2R8SYliwzN-26">
          <mxGeometry x="-0.0687" y="5" relative="1" as="geometry">
            <mxPoint y="10" as="offset" />
          </mxGeometry>
        </mxCell>
        <mxCell id="sHEHEselU_2R8SYliwzN-11" value="&lt;font style=&quot;font-size: 14px;&quot;&gt;Running System&lt;/font&gt;" style="rounded=0;whiteSpace=wrap;html=1;sketch=1;curveFitting=1;jiggle=2;fillColor=#60a917;fontColor=#ffffff;strokeColor=#2D7600;" vertex="1" parent="1">
          <mxGeometry x="554" y="500" width="160" height="130" as="geometry" />
        </mxCell>
        <mxCell id="sHEHEselU_2R8SYliwzN-12" value="&lt;font style=&quot;font-size: 14px;&quot;&gt;Unit Tests&lt;/font&gt;" style="rounded=1;whiteSpace=wrap;html=1;sketch=1;curveFitting=1;jiggle=2;fillColor=#1ba1e2;fontColor=#ffffff;strokeColor=#006EAF;" vertex="1" parent="1">
          <mxGeometry x="156" y="620" width="110" height="40" as="geometry" />
        </mxCell>
        <mxCell id="sHEHEselU_2R8SYliwzN-13" value="&lt;font style=&quot;font-size: 14px;&quot;&gt;Integration Tests&lt;/font&gt;" style="rounded=1;whiteSpace=wrap;html=1;sketch=1;curveFitting=1;jiggle=2;fillColor=#1ba1e2;fontColor=#ffffff;strokeColor=#006EAF;" vertex="1" parent="1">
          <mxGeometry x="286" y="620" width="280" height="40" as="geometry" />
        </mxCell>
        <mxCell id="sHEHEselU_2R8SYliwzN-14" value="&lt;font style=&quot;font-size: 14px;&quot;&gt;System Monitoring&lt;/font&gt;" style="rounded=1;whiteSpace=wrap;html=1;sketch=1;curveFitting=1;jiggle=2;fillColor=#6a00ff;fontColor=#ffffff;strokeColor=#3700CC;" vertex="1" parent="1">
          <mxGeometry x="586" y="620" width="110" height="40" as="geometry" />
        </mxCell>
        <mxCell id="sHEHEselU_2R8SYliwzN-15" value="" style="html=1;shadow=0;dashed=0;align=center;verticalAlign=middle;shape=mxgraph.arrows2.arrow;dy=0.6;dx=40;notch=0;sketch=1;curveFitting=1;jiggle=2;" vertex="1" parent="1">
          <mxGeometry x="291" y="550" width="60" height="30" as="geometry" />
        </mxCell>
        <mxCell id="sHEHEselU_2R8SYliwzN-16" value="" style="html=1;shadow=0;dashed=0;align=center;verticalAlign=middle;shape=mxgraph.arrows2.arrow;dy=0.6;dx=40;notch=0;sketch=1;curveFitting=1;jiggle=2;" vertex="1" parent="1">
          <mxGeometry x="501" y="550" width="60" height="30" as="geometry" />
        </mxCell>
        <mxCell id="sHEHEselU_2R8SYliwzN-18" value="&lt;font style=&quot;font-size: 14px;&quot;&gt;Training &lt;br&gt;Data&lt;/font&gt;" style="html=1;shadow=0;dashed=0;align=center;verticalAlign=middle;shape=mxgraph.arrows2.arrow;dy=0.6;dx=40;direction=south;notch=0;sketch=1;curveFitting=1;jiggle=2;" vertex="1" parent="1">
          <mxGeometry x="391" y="410" width="70" height="100" as="geometry" />
        </mxCell>
        <mxCell id="sHEHEselU_2R8SYliwzN-19" value="&lt;font style=&quot;font-size: 14px;&quot;&gt;ML Infrastructure Tests&lt;/font&gt;" style="rounded=1;whiteSpace=wrap;html=1;sketch=1;curveFitting=1;jiggle=2;fillColor=#1ba1e2;fontColor=#ffffff;strokeColor=#006EAF;" vertex="1" parent="1">
          <mxGeometry x="260" y="470" width="110" height="40" as="geometry" />
        </mxCell>
        <mxCell id="sHEHEselU_2R8SYliwzN-17" value="&lt;font style=&quot;font-size: 15px;&quot;&gt;Data Tests&lt;/font&gt;" style="rounded=1;whiteSpace=wrap;html=1;sketch=1;curveFitting=1;jiggle=2;fillColor=#1ba1e2;fontColor=#ffffff;strokeColor=#006EAF;" vertex="1" parent="1">
          <mxGeometry x="312" y="390" width="110" height="40" as="geometry" />
        </mxCell>
        <mxCell id="sHEHEselU_2R8SYliwzN-20" value="&lt;font style=&quot;font-size: 14px;&quot;&gt;Skew Tests&lt;/font&gt;" style="rounded=1;whiteSpace=wrap;html=1;sketch=1;curveFitting=1;jiggle=2;fillColor=#1ba1e2;fontColor=#ffffff;strokeColor=#006EAF;" vertex="1" parent="1">
          <mxGeometry x="476" y="480" width="110" height="40" as="geometry" />
        </mxCell>
        <mxCell id="sHEHEselU_2R8SYliwzN-21" value="&lt;font style=&quot;font-size: 14px;&quot;&gt;Inference&lt;br&gt;Data&lt;/font&gt;" style="html=1;shadow=0;dashed=0;align=center;verticalAlign=middle;shape=mxgraph.arrows2.arrow;dy=0.6;dx=40;direction=south;notch=0;sketch=1;curveFitting=1;jiggle=2;" vertex="1" parent="1">
          <mxGeometry x="599" y="410" width="70" height="100" as="geometry" />
        </mxCell>
        <mxCell id="sHEHEselU_2R8SYliwzN-22" value="&lt;font style=&quot;font-size: 14px;&quot;&gt;Data Monitoring&lt;/font&gt;" style="rounded=1;whiteSpace=wrap;html=1;sketch=1;curveFitting=1;jiggle=2;fillColor=#6a00ff;fontColor=#ffffff;strokeColor=#3700CC;" vertex="1" parent="1">
          <mxGeometry x="669" y="480" width="110" height="40" as="geometry" />
        </mxCell>
        <mxCell id="sHEHEselU_2R8SYliwzN-28" value="&lt;font style=&quot;font-size: 20px;&quot;&gt;Traditional System Testing and Monitoring&lt;/font&gt;" style="text;html=1;strokeColor=none;fillColor=none;align=center;verticalAlign=middle;whiteSpace=wrap;rounded=0;" vertex="1" parent="1">
          <mxGeometry x="219" y="330" width="380" height="30" as="geometry" />
        </mxCell>
        <mxCell id="sHEHEselU_2R8SYliwzN-29" value="&lt;font style=&quot;font-size: 20px;&quot;&gt;ML-Based System Testing and Monitoring&lt;/font&gt;" style="text;html=1;strokeColor=none;fillColor=none;align=center;verticalAlign=middle;whiteSpace=wrap;rounded=0;" vertex="1" parent="1">
          <mxGeometry x="219" y="680" width="380" height="30" as="geometry" />
        </mxCell>
      </root>
    </mxGraphModel>
  </diagram>
</mxfile>
